<svg role="img" viewBox="0 0 512 512" xmlns="http://www.w3.org/2000/svg" id="Httpie--Streamline-Simple-Icons" height="512" width="512">
  <desc>
    Httpie Streamline Icon: https://streamlinehq.com
  </desc>
  <title>HTTPie</title>
  <path d="M155.30666666666667 0C93.86666666666667 0 42.495999999999995 48.61866666666666 41.23733333333333 109.97333333333333a112.27733333333333 112.27733333333333 0 0 0 112.21333333333332 114.30399999999999h90.09066666666666a6.528 6.528 0 0 1 2.6026666666666665 12.458666666666666l-138.02666666666664 60.48a112.27733333333333 112.27733333333333 0 0 0 -66.88 103.46666666666665C41.664 462.5706666666666 93.184 512 155.15733333333333 512h47.18933333333334c62.336 0 114.28266666666667 -50.02666666666667 114.13333333333333 -112.36266666666667a112.27733333333333 112.27733333333333 0 0 0 -70.18666666666667 -103.82933333333332 6.4639999999999995 6.4639999999999995 0 0 1 -0.14933333333333332 -11.861333333333334l157.90933333333334 -69.24799999999999a112.27733333333333 112.27733333333333 0 0 0 66.73066666666666 -103.38133333333333C470.336 49.42933333333333 418.688 0.064 356.77866666666665 0.064z" fill="#000000" stroke-width="21.3333"></path>
</svg>